HIERARCHY
ROOT joint_Root
{
	OFFSET 0.0 0.0 0.0
	CHANNELS 6 Xposition Yposition Zposition Zrotation Xrotation Yrotation 
	JOINT Hips
	{
		OFFSET 4.5925 91.4895 -427.239
		CHANNELS 6 Xposition Yposition Zposition Zrotation Xrotation Yrotation 
		JOINT Spine
		{
			OFFSET 15.7357 0.0 0.0
			CHANNELS 6 Xposition Yposition Zposition Zrotation Xrotation Yrotation 
			JOINT Chest
			{
				OFFSET 8.98455 -0.406207 0.0
				CHANNELS 6 Xposition Yposition Zposition Zrotation Xrotation Yrotation 
				JOINT Neck
				{
					OFFSET 16.3773 0.0 0.0
					CHANNELS 6 Xposition Yposition Zposition Zrotation Xrotation Yrotation 
					JOINT Head
					{
						OFFSET 6.45672 0.0 0.0
						CHANNELS 6 Xposition Yposition Zposition Zrotation Xrotation Yrotation 
						End Site
						{
							OFFSET 0.0 0.0 0.0
						}
					}
				}
				JOINT Shoulder_L
				{
					OFFSET 12.9942 -0.242716 4.98039
					CHANNELS 6 Xposition Yposition Zposition Zrotation Xrotation Yrotation 
					JOINT UpperArm_L
					{
						OFFSET 5.34809 0.0 0.0
						CHANNELS 6 Xposition Yposition Zposition Zrotation Xrotation Yrotation 
						JOINT LowerArm_L
						{
							OFFSET 24.3286 1.87007e-05 0.0
							CHANNELS 6 Xposition Yposition Zposition Zrotation Xrotation Yrotation 
							JOINT Hand_L
							{
								OFFSET 22.2916 0.0 0.0
								CHANNELS 6 Xposition Yposition Zposition Zrotation Xrotation Yrotation 
								End Site
								{
									OFFSET 0.0 0.0 0.0
								}
							}
						}
					}
				}
				JOINT Shoulder_R
				{
					OFFSET 12.9945 -0.242716 -4.98039
					CHANNELS 6 Xposition Yposition Zposition Zrotation Xrotation Yrotation 
					JOINT UpperArm_R
					{
						OFFSET -5.34813 0.0 0.0
						CHANNELS 6 Xposition Yposition Zposition Zrotation Xrotation Yrotation 
						JOINT LowerArm_R
						{
							OFFSET -24.3289 0.000322201 0.0
							CHANNELS 6 Xposition Yposition Zposition Zrotation Xrotation Yrotation 
							JOINT Hand_R
							{
								OFFSET -22.2915 -0.000108084 0.0
								CHANNELS 6 Xposition Yposition Zposition Zrotation Xrotation Yrotation 
								End Site
								{
									OFFSET 0.0 0.0 0.0
								}
							}
						}
					}
				}
			}
		}
		JOINT UpperLeg_L
		{
			OFFSET -2.19248 -6.46944 0.0
			CHANNELS 6 Xposition Yposition Zposition Zrotation Xrotation Yrotation 
			JOINT LowerLeg_L
			{
				OFFSET 39.0811 0.0 -1.23785e-05
				CHANNELS 6 Xposition Yposition Zposition Zrotation Xrotation Yrotation 
				JOINT Foot_L
				{
					OFFSET 40.9854 0.0 -1.26872e-05
					CHANNELS 6 Xposition Yposition Zposition Zrotation Xrotation Yrotation 
					JOINT Toes_L
					{
						OFFSET 11.7543 0.0 0.0
						CHANNELS 6 Xposition Yposition Zposition Zrotation Xrotation Yrotation 
						End Site
						{
							OFFSET 0.0 0.0 0.0
						}
					}
				}
			}
		}
		JOINT UpperLeg_R
		{
			OFFSET -2.19251 6.46944 0.0
			CHANNELS 6 Xposition Yposition Zposition Zrotation Xrotation Yrotation 
			JOINT LowerLeg_R
			{
				OFFSET -39.0811 -0.00228153 -0.0401928
				CHANNELS 6 Xposition Yposition Zposition Zrotation Xrotation Yrotation 
				JOINT Foot_R
				{
					OFFSET -40.9854 0.0 0.0
					CHANNELS 6 Xposition Yposition Zposition Zrotation Xrotation Yrotation 
					JOINT Toes_R
					{
						OFFSET -11.7543 0.0 0.0
						CHANNELS 6 Xposition Yposition Zposition Zrotation Xrotation Yrotation 
						End Site
						{
							OFFSET 0.0 0.0 0.0
						}
					}
				}
			}
		}
	}
}
MOTION
Frames:	7
Frame Time:	0.0333333
0.000000 0.000000 0.000000 0.000000 0.000000 -0.000000 0.780909 92.692500 -3.409500 87.557400 5.362750 3.369080 15.735700 0.000005 -0.000001 89.486300 86.612300 -93.725700 8.984550 -0.406207 -0.000000 -0.967056 0.261888 -8.473000 16.377300 -0.000001 -0.000001 3.203690 -3.977630 4.439720 6.456720 -0.000001 -0.000000 -1.284690 -2.334280 2.694290 12.994200 -0.242716 4.980390 -92.134200 5.306890 -68.054900 5.348090 -0.000007 -0.000001 -61.220800 10.125000 -1.512890 24.328600 0.000019 0.000005 9.876970 22.469800 -24.492100 22.291600 -0.000001 0.000005 14.426900 5.153990 3.847770 12.994500 -0.242716 -4.980390 94.175700 -11.022000 -69.099500 -5.348130 -0.000001 -0.000004 -29.948300 -67.076900 -67.753700 -24.328900 0.000322 -0.000009 -4.408920 -4.227700 -46.277400 -22.291500 -0.000108 -0.000004 19.842700 5.543290 -8.393480 -2.192480 -6.469440 -0.000000 -175.378000 -11.564900 -5.835820 39.081100 -0.000007 -0.000012 -0.008572 0.020991 22.213000 40.985400 -0.000006 -0.000013 2.706930 14.416400 -63.912500 11.754300 -0.000000 0.000003 -0.000066 -0.000716 -16.605200 -2.192510 6.469440 -0.000001 177.294000 26.561900 179.083000 -39.081100 -0.002282 -0.040193 0.006988 -0.011225 18.072300 -40.985400 0.000008 0.000006 3.970150 17.996100 -63.189700 -11.754300 -0.000006 -0.000006 -0.004833 -0.059845 -19.007900
0.000000 0.000000 0.000000 0.000000 0.000000 -0.000000 1.012470 92.669300 -3.669530 87.656000 4.529690 3.488270 15.735700 0.000005 -0.000001 88.560100 86.535100 -92.572700 8.984550 -0.406207 -0.000000 -0.821364 0.126199 -8.020530 16.377300 -0.000001 -0.000001 2.870650 -3.727880 4.038440 6.456720 -0.000001 -0.000000 -0.993657 -2.315710 3.038860 12.994200 -0.242716 4.980390 -92.136500 5.354030 -68.208000 5.348090 -0.000007 -0.000001 -61.896500 11.953100 -2.037460 24.328600 0.000019 0.000005 9.592820 23.001200 -23.389400 22.291600 -0.000001 0.000005 13.839100 5.149790 3.948350 12.994500 -0.242716 -4.980390 93.559000 -9.952340 -70.207600 -5.348130 -0.000001 -0.000004 -27.399600 -63.934500 -59.436900 -24.328900 0.000322 -0.000009 -4.254450 -2.434970 -60.261900 -22.291500 -0.000108 -0.000004 20.196400 5.539920 -8.238940 -2.192480 -6.469440 -0.000000 -175.639000 -12.032900 -5.848920 39.081100 -0.000007 -0.000012 -0.001252 0.003040 22.381800 40.985400 -0.000006 -0.000013 2.837230 14.007000 -63.902400 11.754300 -0.000000 0.000003 -0.000070 -0.000754 -16.606700 -2.192510 6.469440 -0.000001 177.066000 25.915500 178.875000 -39.081100 -0.002282 -0.040193 0.007180 -0.011721 18.209800 -40.985400 0.000008 0.000006 3.536060 18.158400 -63.021500 -11.754300 -0.000006 -0.000006 -0.005307 -0.064409 -19.194000
0.000000 0.000000 0.000000 0.000000 0.000000 -0.000000 1.209450 92.658200 -3.908810 87.696700 3.621480 3.632800 15.735700 0.000005 -0.000001 87.180000 86.434500 -90.948200 8.984550 -0.406207 -0.000000 -0.634844 -0.074855 -7.532990 16.377300 -0.000001 -0.000001 2.521720 -3.396740 3.639200 6.456720 -0.000001 -0.000000 -0.767176 -2.246500 3.497540 12.994200 -0.242716 4.980390 -92.116200 5.317410 -68.261900 5.348090 -0.000007 -0.000001 -62.549800 13.916500 -2.577400 24.328600 0.000019 0.000005 9.524730 23.592000 -22.745000 22.291600 -0.000001 0.000005 13.135000 5.146890 4.017530 12.994500 -0.242716 -4.980390 92.900100 -8.889920 -71.849900 -5.348130 -0.000001 -0.000004 -25.169900 -59.912800 -50.393700 -24.328900 0.000322 -0.000009 -4.466120 -1.198820 -74.999100 -22.291500 -0.000108 -0.000004 20.204600 5.531170 -7.846790 -2.192480 -6.469440 -0.000000 -175.789000 -12.573100 -5.762400 39.081100 -0.000007 -0.000012 0.004502 -0.010880 22.478800 40.985400 -0.000006 -0.000013 2.935390 13.635300 -63.892500 11.754300 -0.000000 0.000003 -0.000064 -0.000704 -16.604800 -2.192510 6.469440 -0.000001 176.952000 25.143700 178.719000 -39.081100 -0.002282 -0.040193 0.007333 -0.012139 18.275500 -40.985400 0.000008 0.000006 3.264050 18.207200 -62.833000 -11.754300 -0.000006 -0.000006 -0.005566 -0.066840 -19.293100
0.000000 0.000000 0.000000 0.000000 0.000000 -0.000000 1.377170 92.652100 -4.135640 87.765300 2.677290 3.763220 15.735700 0.000005 -0.000001 85.630000 86.305000 -89.138500 8.984550 -0.406207 -0.000000 -0.397338 -0.313313 -7.014080 16.377300 -0.000001 -0.000001 2.089890 -2.979870 3.133180 6.456720 -0.000001 -0.000000 -0.604860 -2.269220 3.972320 12.994200 -0.242716 4.980390 -92.168600 5.438000 -68.219400 5.348090 -0.000007 -0.000001 -62.974900 15.956200 -3.124450 24.328600 0.000019 0.000005 9.471040 23.599300 -22.621700 22.291600 -0.000001 0.000005 12.795800 5.146340 4.030600 12.994500 -0.242716 -4.980390 92.058300 -6.928980 -73.410900 -5.348130 -0.000001 -0.000004 -23.881200 -54.525300 -43.274400 -24.328900 0.000322 -0.000009 -3.729260 -0.128509 -88.026300 -22.291500 -0.000108 -0.000004 20.218200 5.524530 -7.556670 -2.192480 -6.469440 -0.000000 -175.965000 -12.976500 -5.670960 39.081100 -0.000007 -0.000012 0.007755 -0.018713 22.511000 40.985400 -0.000006 -0.000013 2.956010 13.032800 -63.822800 11.754300 -0.000000 0.000003 -0.000066 -0.000723 -16.605500 -2.192510 6.469440 -0.000001 176.797000 24.534300 178.582000 -39.081100 -0.002282 -0.040193 0.007535 -0.012714 18.324100 -40.985400 0.000008 0.000006 2.818730 18.344200 -62.739100 -11.754300 -0.000006 -0.000006 -0.005926 -0.070162 -19.428500
0.000000 0.000000 0.000000 0.000000 0.000000 -0.000000 1.505380 92.615900 -4.343860 87.838500 1.778500 3.969480 15.735700 0.000005 -0.000001 83.938100 86.129400 -87.150900 8.984550 -0.406207 -0.000000 -0.076611 -0.597637 -6.421900 16.377300 -0.000001 -0.000001 1.663280 -2.560600 2.612530 6.456720 -0.000001 -0.000000 -0.549289 -2.173960 4.175450 12.994200 -0.242716 4.980390 -92.313800 5.770510 -68.107000 5.348090 -0.000007 -0.000001 -63.136000 17.685400 -3.678670 24.328600 0.000019 0.000005 9.467950 23.242700 -22.908600 22.291600 -0.000001 0.000005 12.580600 5.154730 3.830010 12.994500 -0.242716 -4.980390 91.149800 -4.253830 -74.859800 -5.348130 -0.000001 -0.000004 -22.767700 -47.220900 -37.180100 -24.328900 0.000322 -0.000009 -2.954880 0.454680 -98.738400 -22.291500 -0.000108 -0.000004 20.099500 5.519360 -7.334670 -2.192480 -6.469440 -0.000000 -176.120000 -13.109200 -5.606580 39.081100 -0.000007 -0.000012 0.011248 -0.026829 22.745800 40.985400 -0.000006 -0.000013 2.930410 12.248000 -63.850500 11.754300 -0.000000 0.000003 -0.000072 -0.000774 -16.607400 -2.192510 6.469440 -0.000001 176.608000 24.146800 178.516000 -39.081100 -0.002282 -0.040193 0.007627 -0.012892 18.458000 -40.985400 0.000008 0.000006 2.771570 18.779500 -62.838600 -11.754300 -0.000006 -0.000006 -0.006067 -0.071446 -19.480900
0.000000 0.000000 0.000000 0.000000 0.000000 -0.000000 1.594190 92.559100 -4.484160 87.998200 0.801504 4.314930 15.735700 0.000005 -0.000001 83.401900 85.922800 -86.366700 8.984550 -0.406207 -0.000000 0.322184 -0.744306 -5.923460 16.377300 -0.000001 -0.000001 1.285540 -2.182260 2.165650 6.456720 -0.000001 -0.000000 -0.524801 -2.116400 4.452020 12.994200 -0.242716 4.980390 -92.452600 6.114560 -68.094200 5.348090 -0.000007 -0.000001 -63.093700 19.224000 -4.117560 24.328600 0.000019 0.000005 9.485970 22.443200 -23.637900 22.291600 -0.000001 0.000005 12.387700 5.164400 3.596540 12.994500 -0.242716 -4.980390 90.247400 -1.008800 -76.223100 -5.348130 -0.000001 -0.000004 -21.838000 -37.383200 -31.522600 -24.328900 0.000322 -0.000009 -2.794520 0.813332 -106.212000 -22.291500 -0.000108 -0.000004 20.189400 5.529220 -7.760790 -2.192480 -6.469440 -0.000000 -176.277000 -13.252600 -5.349470 39.081100 -0.000007 -0.000012 0.009230 -0.021718 23.025200 40.985400 -0.000006 -0.000013 2.859740 11.400700 -63.959300 11.754300 -0.000000 0.000003 -0.000070 -0.000759 -16.606900 -2.192510 6.469440 -0.000001 176.300000 23.664400 178.586000 -39.081100 -0.002282 -0.040193 0.007686 -0.012894 18.693600 -40.985400 0.000008 0.000006 2.792490 19.259000 -62.994200 -11.754300 -0.000006 -0.000006 -0.006159 -0.072274 -19.514700
0.000000 0.000000 0.000000 0.000000 0.000000 -0.000000 1.603800 92.522500 -4.638750 88.101200 -0.061346 4.507860 15.735700 0.000005 -0.000001 84.056800 85.771600 -86.737000 8.984550 -0.406207 -0.000000 0.634496 -0.708692 -5.352610 16.377300 -0.000001 -0.000001 0.933994 -1.881860 1.747020 6.456720 -0.000001 -0.000000 -0.447668 -2.230430 4.412410 12.994200 -0.242716 4.980390 -92.579700 6.524460 -68.371400 5.348090 -0.000007 -0.000001 -62.848900 20.563500 -4.630350 24.328600 0.000019 0.000005 9.581590 21.789900 -24.453800 22.291600 -0.000001 0.000005 11.979300 5.180200 3.210690 12.994500 -0.242716 -4.980390 89.574900 1.881540 -77.265800 -5.348130 -0.000001 -0.000004 -22.542300 -24.739700 -26.166300 -24.328900 0.000322 -0.000009 -4.611790 1.633620 -109.463000 -22.291500 -0.000108 -0.000004 20.079700 5.546770 -8.554540 -2.192480 -6.469440 -0.000000 -176.385000 -13.036200 -5.261420 39.081100 -0.000007 -0.000012 0.006804 -0.015864 23.214100 40.985400 -0.000006 -0.000013 2.662070 10.376600 -63.961400 11.754300 -0.000000 0.000003 -0.000070 -0.000760 -16.606900 -2.192510 6.469440 -0.000001 176.183000 22.891800 178.393000 -39.081100 -0.002282 -0.040193 -0.002988 0.018341 18.987400 -40.985400 0.000008 0.000006 2.197740 19.424500 -62.691000 -11.754300 -0.000006 -0.000006 -0.006065 -0.071427 -19.480100
